<?xml version="1.0" standalone="no"?>
<!DOCTYPE svg PUBLIC "-//W3C//DTD SVG 20010904//EN"
 "http://www.w3.org/TR/2001/REC-SVG-20010904/DTD/svg10.dtd">
<svg version="1.0" xmlns="http://www.w3.org/2000/svg"
 width="64.000000pt" height="64.000000pt" viewBox="0 0 64.000000 64.000000"
 preserveAspectRatio="xMidYMid meet">
<metadata>
Created by potrace 1.15, written by Peter Selinger 2001-2017
</metadata>
<g transform="translate(0.000000,64.000000) scale(0.100000,-0.100000)"
fill="#000000" stroke="none">
<path d="M490 552 c-22 -7 -30 -25 -18 -39 17 -21 -58 -111 -111 -135 -49 -21
-44 -23 -82 43 -25 43 -55 59 -110 59 -47 0 -80 -30 -112 -99 -28 -64 -13
-171 25 -171 5 0 4 9 -2 19 -5 11 -10 30 -10 43 1 20 3 18 18 -12 9 -19 25
-36 35 -38 16 -3 16 -1 -3 30 -20 32 -28 104 -11 94 4 -3 12 -20 16 -38 l8
-33 4 28 c3 15 9 27 14 27 6 0 8 -16 5 -37 l-5 -38 14 40 15 40 -3 -43 c-1
-25 2 -41 8 -39 5 2 18 -7 28 -19 11 -15 28 -23 50 -22 17 0 46 -3 64 -7 28
-6 32 -12 38 -52 5 -33 3 -48 -7 -54 -9 -6 -6 -9 10 -9 13 0 20 -4 17 -10 -3
-6 5 -11 19 -12 14 0 31 -1 36 -2 6 -1 10 2 10 7 0 4 -2 6 -5 5 -3 -2 -15 11
-26 29 -28 44 -17 75 47 131 59 50 76 89 73 165 -1 23 4 55 10 70 17 44 -19
93 -59 79z"/>
</g>
</svg>
